<?xml version="1.0" encoding="UTF-8" standalone="yes"?>
<svg xmlns="http://www.w3.org/2000/svg" xmlns:xlink="http://www.w3.org/1999/xlink" width="1051.967px" height="1054.227px" version="1.1" viewBox="-262.399 505.524 525.983 527.113">
  <!--
	Exported with Concepts: Smarter Sketching
	Version: 1497 on iOS 15.7
	https://concepts.app/
	-->
  <title>47676490-9884-4FFC-BFE8-2E1319895F2D</title>
  <desc>Drawing exported from Concepts: Smarter Sketching</desc>
  <defs></defs>
  <g id="Guides" opacity="1.000">
    <path id="STROKE_b7913585-c1ea-4155-8aba-3cabf121ec2b" opacity="1.000" fill="none" stroke="#000000" stroke-width="1.200" stroke-opacity="1.000" stroke-linecap="round" stroke-linejoin="round" d="M -255.689 512.509 Q -255.702 512.248 -255.703 512.330 Q -255.854 512.064 -255.798 512.162 Q -255.860 512.096 -255.893 512.065 Q -255.933 511.903 -255.843 514.325 Q -255.754 516.747 -255.692 517.941 Q -255.630 519.135 -255.590 520.320 Q -255.549 521.504 -255.584 522.244 Q -255.618 522.985 -255.523 524.274 Q -255.429 525.564 -255.395 526.220 Q -255.362 526.876 -255.357 527.414 Q -255.353 527.953 -255.798 528.604 Q -255.892 528.553 -255.939 528.514 "></path>
    <path id="STROKE_59f02eae-ec14-4c74-8f27-a982ae4312c4" opacity="1.000" fill="none" stroke="#000000" stroke-width="1.200" stroke-opacity="1.000" stroke-linecap="round" stroke-linejoin="round" d="M -255.028 512.876 Q -255.228 512.877 -255.189 512.883 Q -255.216 512.877 -255.481 512.994 Q -255.591 513.037 -254.764 512.987 Q -253.936 512.937 -253.231 513.005 Q -252.526 513.073 -252.069 513.301 Q -251.613 513.529 -251.009 513.662 Q -250.406 513.795 -249.357 513.740 Q -248.309 513.685 -247.634 513.575 Q -246.960 513.465 -246.110 513.183 Q -245.261 512.901 -244.883 512.763 Q -244.505 512.625 -244.176 512.483 Q -243.848 512.341 -243.128 512.188 Q -242.408 512.034 -241.966 511.963 Q -241.525 511.891 -241.273 511.869 Q -241.022 511.847 -240.544 511.830 Q -240.066 511.814 -239.575 511.800 Q -239.084 511.786 -238.734 511.795 Q -238.383 511.803 -238.151 511.835 Q -237.918 511.867 -237.790 511.933 Q -237.790 511.940 -237.790 511.947 Q -237.781 511.947 -237.744 511.933 "></path>
    <path id="STROKE_69899453-c924-4b98-9587-6d40065affac" opacity="1.000" fill="none" stroke="#000000" stroke-width="1.200" stroke-opacity="1.000" stroke-linecap="round" stroke-linejoin="round" d="M 243.378 513.044 Q 243.232 512.985 242.580 512.743 Q 242.580 512.586 242.580 512.587 Q 242.629 512.346 242.632 512.331 Q 242.634 512.316 242.640 512.355 Q 243.049 512.285 242.914 512.314 Q 243.234 512.431 243.161 512.413 Q 243.108 512.361 243.627 512.649 Q 244.146 512.936 245.368 513.032 Q 246.590 513.128 247.357 513.157 Q 248.125 513.187 248.495 513.174 Q 248.866 513.161 249.020 513.159 Q 249.175 513.156 249.143 513.147 Q 249.112 513.137 249.142 513.156 Q 249.172 513.175 249.853 513.155 Q 250.533 513.135 250.886 513.064 Q 251.240 512.993 251.454 512.953 Q 251.667 512.914 251.789 512.914 Q 251.910 512.913 251.943 512.903 Q 251.976 512.893 251.967 512.900 Q 251.957 512.906 252.198 512.848 Q 252.439 512.791 252.505 512.771 Q 252.571 512.751 252.755 512.723 Q 252.939 512.696 252.931 512.697 Q 252.924 512.697 252.934 512.698 Q 252.943 512.699 253.044 512.687 Q 253.144 512.675 253.292 512.654 Q 253.440 512.633 253.398 512.640 Q 253.356 512.647 253.464 512.632 Q 253.572 512.617 253.725 512.572 Q 253.879 512.527 254.020 512.471 Q 254.161 512.414 254.156 512.414 Q 254.151 512.415 254.197 512.410 Q 254.243 512.404 254.198 512.389 Q 254.152 512.374 254.449 512.343 Q 254.746 512.311 254.884 512.309 Q 255.022 512.307 255.078 512.320 Q 255.134 512.333 255.132 512.333 Q 255.130 512.333 255.109 512.329 Q 255.088 512.325 255.142 512.334 Q 255.195 512.342 255.079 512.341 Q 254.963 512.339 255.691 512.345 "></path>
    <path id="STROKE_c48516d7-8d3b-45f7-9c86-f0ef2abc5bf0" opacity="1.000" fill="none" stroke="#000000" stroke-width="1.200" stroke-opacity="1.000" stroke-linecap="round" stroke-linejoin="round" d="M 255.644 512.544 Q 255.652 512.544 255.727 512.396 Q 255.649 512.228 255.541 512.472 Q 255.434 512.716 255.389 512.963 Q 255.344 513.210 255.346 513.361 Q 255.347 513.513 255.350 513.709 Q 255.352 513.904 255.344 513.997 Q 255.337 514.089 255.361 514.336 Q 255.386 514.582 255.442 514.879 Q 255.498 515.175 255.556 515.394 Q 255.613 515.612 255.617 515.647 Q 255.621 515.682 255.635 515.620 Q 255.649 515.559 255.726 516.418 Q 255.802 517.278 255.810 517.729 Q 255.818 518.180 255.894 518.371 Q 255.969 518.562 256.000 518.694 Q 256.031 518.826 256.036 518.855 Q 256.041 518.885 256.036 518.860 Q 256.030 518.835 256.066 518.937 Q 256.103 519.039 256.003 519.928 Q 255.904 520.817 255.846 521.216 Q 255.789 521.614 255.765 522.035 Q 255.741 522.456 255.691 522.715 Q 255.640 522.975 255.643 523.069 Q 255.645 523.163 255.641 523.153 Q 255.638 523.143 255.646 523.114 Q 255.655 523.085 255.626 523.491 Q 255.596 523.896 255.538 524.271 Q 255.480 524.646 255.478 524.808 Q 255.477 524.971 255.477 525.044 Q 255.477 525.118 255.474 525.152 Q 255.471 525.186 255.482 525.130 Q 255.493 525.073 255.446 525.423 Q 255.400 525.773 255.373 525.877 Q 255.347 525.982 255.338 526.181 Q 255.329 526.381 255.330 526.513 Q 255.330 526.646 255.328 526.638 Q 255.326 526.631 255.348 526.618 Q 255.370 526.605 255.211 527.525 "></path>
    <path id="STROKE_6445fa9e-4389-4aeb-b1cb-a6a202e8aa55" opacity="1.000" fill="none" stroke="#000000" stroke-width="1.200" stroke-opacity="1.000" stroke-linecap="round" stroke-linejoin="round" d="M 255.192 1002.656 Q 255.202 1002.656 255.259 1002.656 Q 255.263 1002.778 255.249 1002.336 Q 255.225 1002.326 255.132 1002.191 Q 255.099 1002.618 255.174 1004.735 Q 255.249 1006.852 255.281 1009.198 Q 255.313 1011.543 255.354 1012.782 Q 255.395 1014.022 255.419 1014.630 Q 255.443 1015.239 255.449 1015.619 Q 255.455 1015.998 255.461 1016.219 Q 255.467 1016.439 255.480 1016.678 Q 255.494 1016.917 255.521 1017.274 Q 255.549 1017.630 255.549 1017.828 Q 255.549 1018.025 255.560 1018.160 Q 255.571 1018.295 255.572 1018.608 Q 255.573 1018.920 255.572 1019.249 Q 255.572 1019.579 255.572 1019.654 Q 255.572 1019.730 255.572 1019.885 Q 255.572 1020.040 255.572 1020.097 Q 255.572 1020.154 255.572 1020.215 Q 255.572 1020.275 255.575 1020.198 Q 255.578 1020.122 255.571 1020.334 Q 255.565 1020.547 255.560 1020.687 Q 255.555 1020.827 255.608 1020.992 Q 255.662 1021.156 255.693 1021.257 Q 255.724 1021.357 255.773 1021.486 Q 255.823 1021.615 255.803 1021.527 Q 255.783 1021.440 256.106 1022.363 Q 256.116 1022.363 256.126 1022.363 Q 256.184 1022.869 256.106 1023.553 Q 256.325 1023.552 256.379 1023.383 "></path>
    <path id="STROKE_4d177b8e-6bed-46be-aa1c-e72355d87e78" opacity="1.000" fill="none" stroke="#000000" stroke-width="1.200" stroke-opacity="1.000" stroke-linecap="round" stroke-linejoin="round" d="M 233.472 1024.933 Q 233.492 1024.933 233.539 1024.933 Q 233.248 1024.457 233.296 1024.534 Q 233.344 1024.611 233.339 1024.601 Q 233.333 1024.591 233.265 1024.478 Q 233.197 1024.365 233.194 1024.357 Q 233.190 1024.350 233.209 1024.368 Q 233.199 1024.348 233.199 1024.273 Q 233.707 1024.273 233.579 1024.273 Q 233.917 1024.273 233.896 1024.273 Q 234.239 1024.288 235.581 1024.259 Q 236.922 1024.231 237.850 1024.135 Q 238.777 1024.040 239.133 1023.979 Q 239.489 1023.918 240.118 1023.756 Q 240.748 1023.594 241.211 1023.594 Q 241.674 1023.593 242.153 1023.593 Q 242.633 1023.593 242.968 1023.593 Q 243.303 1023.593 243.492 1023.593 Q 243.681 1023.593 243.790 1023.593 Q 243.899 1023.593 243.963 1023.593 Q 244.026 1023.593 244.127 1023.594 Q 244.227 1023.594 244.513 1023.592 Q 244.799 1023.590 244.905 1023.590 Q 245.011 1023.590 244.995 1023.590 Q 244.979 1023.590 245.220 1023.618 Q 245.462 1023.646 245.655 1023.702 Q 245.848 1023.757 246.213 1023.844 Q 246.579 1023.930 246.767 1023.991 Q 246.955 1024.053 247.068 1024.113 Q 247.181 1024.174 247.274 1024.214 Q 247.367 1024.253 247.489 1024.294 Q 247.610 1024.335 247.672 1024.358 Q 247.733 1024.381 247.664 1024.341 Q 247.595 1024.302 248.155 1024.525 Q 248.716 1024.748 249.207 1024.936 Q 249.698 1025.124 249.958 1025.213 Q 250.219 1025.301 250.325 1025.294 Q 250.431 1025.287 250.532 1025.292 Q 250.633 1025.296 250.787 1025.294 Q 250.941 1025.292 250.864 1025.293 Q 250.787 1025.293 250.892 1025.290 Q 250.997 1025.286 251.478 1025.293 Q 251.959 1025.299 252.334 1025.300 Q 252.709 1025.300 252.861 1025.278 Q 253.012 1025.256 253.102 1025.228 Q 253.191 1025.201 253.275 1025.186 Q 253.358 1025.171 253.524 1025.154 Q 253.689 1025.137 253.820 1025.141 Q 253.951 1025.146 254.131 1025.144 Q 254.310 1025.143 254.491 1025.143 Q 254.672 1025.144 254.795 1025.144 Q 254.919 1025.143 255.014 1025.143 Q 255.109 1025.143 255.217 1025.143 Q 255.325 1025.143 255.319 1025.143 Q 255.313 1025.143 255.336 1025.143 Q 255.359 1025.143 255.493 1025.143 Q 255.626 1025.143 255.649 1025.138 Q 255.671 1025.133 255.656 1025.139 Q 255.642 1025.145 255.793 1025.152 Q 255.945 1025.158 256.699 1024.953 Q 257.143 1024.754 256.983 1024.823 Q 257.135 1024.786 257.353 1024.338 "></path>
    <path id="STROKE_e238f1b8-05a4-43d2-b1eb-4fcb5dfb93ce" opacity="1.000" fill="none" stroke="#000000" stroke-width="1.200" stroke-opacity="1.000" stroke-linecap="round" stroke-linejoin="round" d="M -254.967 990.925 Q -254.904 990.272 -254.929 990.424 Q -255.035 989.743 -255.042 989.909 Q -255.051 989.877 -255.139 989.543 Q -255.227 989.209 -255.213 989.273 Q -255.200 989.337 -255.148 989.352 Q -255.096 989.367 -255.716 988.143 Q -255.735 988.143 -255.754 988.143 Q -255.952 987.666 -255.432 989.869 Q -254.912 992.072 -254.899 994.038 Q -254.885 996.003 -254.904 996.820 Q -254.922 997.638 -254.694 1000.601 Q -254.466 1003.563 -254.385 1006.838 Q -254.304 1010.113 -254.273 1010.951 Q -254.242 1011.789 -254.324 1012.987 Q -254.406 1014.186 -254.569 1014.945 Q -254.731 1015.703 -254.777 1016.040 Q -254.824 1016.377 -254.812 1016.680 Q -254.800 1016.982 -254.817 1016.979 Q -254.835 1016.975 -254.833 1017.015 Q -254.832 1017.054 -254.868 1017.313 Q -254.904 1017.572 -254.905 1017.556 Q -254.906 1017.540 -254.905 1017.623 Q -254.905 1017.706 -254.961 1018.555 Q -255.018 1019.403 -255.213 1020.665 Q -255.409 1021.928 -255.604 1022.676 Q -255.800 1023.424 -255.836 1023.754 Q -255.871 1024.084 -255.873 1024.056 Q -255.874 1024.027 -255.874 1024.033 Q -255.873 1024.038 -255.877 1024.150 Q -255.881 1024.262 -255.973 1024.853 L -255.991 1024.853 Q -255.991 1024.872 -255.991 1024.890 Q -256.016 1024.890 -256.154 1024.815 "></path>
    <path id="STROKE_c97c8f6c-b359-4e85-bdf3-07161ee19924" opacity="1.000" fill="none" stroke="#000000" stroke-width="1.200" stroke-opacity="1.000" stroke-linecap="round" stroke-linejoin="round" d="M -254.767 1024.890 Q -254.767 1024.932 -254.767 1025.050 Q -254.785 1025.050 -255.004 1025.050 Q -254.963 1025.071 -255.479 1023.860 Q -255.498 1023.860 -255.516 1023.860 Q -255.089 1024.188 -255.123 1024.136 Q -254.593 1024.422 -251.850 1025.177 Q -249.107 1025.933 -246.444 1025.799 Q -243.782 1025.665 -242.499 1025.415 Q -241.216 1025.166 -240.678 1024.989 Q -240.139 1024.811 -239.847 1024.673 Q -239.556 1024.535 -239.531 1024.550 Q -239.507 1024.565 -238.995 1024.377 Q -238.482 1024.190 -238.155 1024.143 Q -237.828 1024.096 -237.551 1024.061 Q -237.274 1024.025 -237.307 1024.047 Q -237.341 1024.068 -237.502 1024.022 Q -237.663 1023.977 -235.798 1023.908 Q -233.934 1023.839 -233.278 1023.791 Q -232.621 1023.742 -231.546 1023.801 Q -230.471 1023.860 -229.917 1024.016 Q -229.363 1024.172 -229.204 1024.223 Q -229.045 1024.273 -228.936 1024.268 Q -228.827 1024.262 -228.723 1024.275 Q -228.620 1024.289 -228.718 1024.277 Q -228.816 1024.266 -228.547 1024.328 Q -228.278 1024.390 -227.118 1024.464 Q -225.959 1024.539 -225.108 1024.560 Q -224.258 1024.580 -224.032 1024.613 Q -223.807 1024.645 -223.877 1024.626 Q -223.948 1024.607 -223.929 1024.628 Q -223.911 1024.649 -223.301 1024.805 Q -222.692 1024.960 -221.332 1024.929 Q -219.973 1024.898 -219.212 1024.920 Q -218.451 1024.941 -218.054 1025.039 Q -217.657 1025.136 -217.381 1025.278 Q -217.106 1025.420 -217.082 1025.412 Q -217.059 1025.405 -217.039 1025.424 Q -217.020 1025.442 -217.031 1025.464 Q -217.043 1025.487 -216.323 1025.743 Q -215.602 1025.999 -212.988 1026.384 Q -212.883 1026.081 -212.844 1025.930 "></path>
  </g>
  <g id="New_Layer_1" opacity="1.000">
    <path id="STROKE_f3cde437-49fa-4e46-8ce3-4a67c94be7a0" opacity="0.690" fill="#aed44d" stroke="#aed44d" stroke-width="0.500" stroke-opacity="1.000" stroke-linecap="round" stroke-linejoin="round" d="M 2.572 645.471 Q 2.689 644.631 1.215 642.610 Q -0.259 640.589 -0.932 639.544 Q -1.605 638.498 -4.887 637.174 Q -8.170 635.849 -11.786 635.248 Q -15.401 634.646 -19.712 634.368 Q -24.023 634.089 -29.045 634.592 Q -34.067 635.095 -39.092 636.996 Q -44.118 638.896 -46.815 639.986 Q -49.512 641.075 -53.631 643.559 Q -57.749 646.042 -60.706 648.264 Q -63.662 650.486 -65.325 651.803 Q -66.987 653.120 -72.117 657.842 Q -77.246 662.565 -80.828 666.860 Q -84.409 671.156 -85.876 673.273 Q -87.343 675.391 -88.904 677.569 Q -90.465 679.748 -93.995 686.448 Q -97.525 693.149 -99.808 698.254 Q -102.090 703.359 -104.188 709.308 Q -106.286 715.256 -107.593 721.957 Q -108.900 728.659 -109.285 736.372 Q -109.669 744.085 -109.556 748.806 Q -109.443 753.528 -108.728 756.832 Q -108.014 760.136 -107.160 763.612 Q -106.306 767.088 -104.593 772.286 Q -102.879 777.484 -99.060 783.926 Q -95.241 790.369 -90.733 796.026 Q -86.225 801.684 -83.646 804.550 Q -81.066 807.416 -77.778 810.515 Q -74.490 813.614 -70.317 817.218 Q -66.143 820.821 -60.602 824.077 Q -55.060 827.334 -51.842 828.788 Q -48.623 830.243 -44.224 831.976 Q -39.825 833.710 -33.036 835.479 Q -26.247 837.249 -20.993 838.125 Q -15.739 839.001 -8.850 839.690 Q -1.961 840.378 4.591 840.507 Q 11.143 840.636 20.450 839.730 Q 29.758 838.824 36.694 837.731 Q 43.630 836.638 50.240 834.542 Q 56.850 832.445 62.818 829.830 Q 68.785 827.215 74.783 823.647 Q 80.781 820.079 84.265 817.649 Q 87.749 815.220 90.151 813.460 Q 92.553 811.699 96.085 808.577 Q 99.617 805.454 102.831 802.124 Q 106.046 798.795 109.466 793.852 Q 112.885 788.908 114.897 784.603 Q 116.908 780.298 117.696 778.036 Q 118.483 775.773 118.963 774.497 Q 119.442 773.221 120.411 769.170 Q 121.379 765.118 121.857 759.664 Q 122.334 754.210 121.829 748.835 Q 121.324 743.459 120.072 739.251 Q 118.819 735.043 118.125 732.910 Q 117.430 730.777 115.742 727.195 Q 114.055 723.613 112.831 721.514 Q 111.608 719.415 110.668 717.625 Q 109.728 715.835 106.247 709.271 Q 102.767 702.708 98.915 695.898 Q 95.064 689.087 93.086 685.716 Q 91.107 682.344 89.489 680.125 Q 87.871 677.906 86.377 675.953 Q 84.882 674.000 83.453 672.955 Q 82.023 671.909 80.371 671.514 Q 78.719 671.120 77.761 671.176 Q 76.803 671.231 76.105 671.185 Q 75.406 671.139 73.411 671.790 Q 71.416 672.441 68.199 674.224 Q 64.982 676.006 60.176 677.621 Q 55.371 679.236 52.276 680.009 Q 49.181 680.783 46.466 681.428 Q 43.751 682.072 42.535 682.368 Q 41.318 682.663 38.663 683.246 Q 36.008 683.829 31.432 685.052 Q 26.856 686.275 23.673 687.011 Q 20.489 687.747 17.408 688.057 Q 14.326 688.367 11.439 687.652 Q 8.553 686.937 7.252 686.265 Q 5.951 685.593 4.533 684.602 Q 3.116 683.612 2.062 682.081 Q 1.008 680.551 0.853 679.188 Q 0.699 677.826 0.643 676.828 Q 0.587 675.829 1.101 674.219 Q 1.615 672.608 3.044 670.609 Q 4.472 668.610 5.471 667.345 Q 6.471 666.080 7.474 664.932 Q 8.478 663.784 9.647 662.648 Q 10.816 661.513 12.059 660.219 Q 13.302 658.925 17.148 655.546 Q 20.993 652.168 27.022 648.702 Q 33.052 645.236 37.515 642.370 Q 41.977 639.504 44.404 637.504 Q 46.831 635.505 49.276 633.214 Q 51.720 630.924 54.253 627.292 Q 56.785 623.659 59.013 618.993 Q 61.241 614.326 62.015 610.013 Q 62.789 605.700 62.794 602.653 Q 62.799 599.605 62.093 596.814 Q 61.387 594.023 59.084 590.540 Q 56.782 587.056 54.659 584.950 Q 52.537 582.844 49.806 580.685 Q 47.076 578.526 44.529 576.519 Q 41.982 574.513 40.014 573.425 Q 38.045 572.337 35.815 571.025 Q 33.585 569.712 30.569 568.730 Q 27.553 567.747 24.384 567.732 Q 21.216 567.717 18.678 567.749 Q 16.140 567.781 15.307 567.662 Q 14.474 567.543 8.693 567.727 Q 2.913 567.911 -0.686 568.285 Q -4.285 568.660 -6.557 568.690 Q -8.829 568.719 -11.665 569.828 Q -14.502 570.938 -16.102 571.648 Q -17.702 572.359 -19.256 573.573 Q -20.809 574.787 -21.585 575.969 Q -22.362 577.151 -22.669 577.694 Q -22.977 578.237 -23.095 578.659 Q -23.213 579.082 -23.301 579.486 Q -23.390 579.890 -23.499 580.487 Q -23.608 581.085 -23.643 581.811 Q -23.679 582.536 -23.670 583.132 Q -23.661 583.727 -23.693 584.262 Q -23.725 584.798 -23.700 585.736 Q -23.676 586.675 -23.527 587.370 Q -23.378 588.065 -23.108 588.911 Q -22.838 589.757 -22.442 590.658 Q -22.046 591.560 -21.822 591.955 Q -21.598 592.351 -21.400 592.672 Q -21.201 592.992 -21.010 593.303 Q -20.818 593.615 -20.841 593.586 Q -20.865 593.558 -20.780 593.622 Q -20.695 593.687 -19.891 595.063 Q -19.087 596.440 -18.175 597.809 Q -17.264 599.177 -16.795 599.644 Q -16.326 600.112 -16.007 600.465 Q -15.688 600.819 -15.221 601.370 Q -14.755 601.921 -14.471 602.356 Q -14.186 602.791 -14.095 602.943 Q -14.003 603.094 -13.995 603.107 Q -13.987 603.121 -13.777 603.388 Q -13.566 603.656 -13.646 603.577 Q -13.725 603.499 -13.331 604.075 Q -12.937 604.651 -12.644 605.046 Q -12.351 605.440 -12.315 605.482 Q -12.279 605.523 -12.339 605.558 Q -12.399 605.592 -12.341 605.491 Q -12.282 605.390 -11.589 606.893 Q -10.896 608.396 -10.733 609.777 Q -10.571 611.158 -10.804 612.078 Q -11.036 612.999 -12.734 616.826 "></path>
  </g>
</svg>